<svg width="95" height="78" viewBox="0 0 95 78" fill="none" xmlns="http://www.w3.org/2000/svg">
<path d="M64.0573 4.40269L61.0868 1.39703C60.6489 0.954155 60.1289 0.60281 59.5565 0.363098C58.9841 0.123386 58.3706 0 57.7509 0C57.1313 0 56.5178 0.123386 55.9454 0.363098C55.373 0.60281 54.853 0.954155 54.4151 1.39703L28.1241 27.9574C27.6861 28.401 27.1658 28.753 26.593 28.9931C26.0202 29.2332 25.4061 29.3569 24.7859 29.3569C24.1657 29.3569 23.5516 29.2332 22.9788 28.9931C22.4059 28.753 21.8856 28.401 21.4476 27.9574L11.0227 17.4257C10.5848 16.9828 10.0648 16.6315 9.49242 16.3918C8.92002 16.152 8.30647 16.0287 7.68684 16.0287C7.06722 16.0287 6.45367 16.152 5.88127 16.3918C5.30888 16.6315 4.78887 16.9828 4.35097 17.4257L1.37579 20.4266C0.494738 21.3195 0 22.5288 0 23.7895C0 25.0503 0.494738 26.2596 1.37579 27.1524L21.4476 47.449C21.8856 47.8926 22.4059 48.2446 22.9788 48.4847C23.5516 48.7249 24.1657 48.8484 24.7859 48.8484C25.4061 48.8484 26.0202 48.7249 26.593 48.4847C27.1658 48.2446 27.6861 47.8926 28.1241 47.449L29.8639 45.6866L64.0573 11.1428C64.4957 10.7004 64.8434 10.1751 65.0807 9.59683C65.318 9.01857 65.4401 8.39874 65.4401 7.77277C65.4401 7.14679 65.318 6.52695 65.0807 5.94868C64.8434 5.37042 64.4957 4.84508 64.0573 4.40269Z" fill="#EF5A5A"/>
<path d="M52.6733 53.967L55.6354 51.0062C56.0796 50.562 56.6069 50.2096 57.1874 49.9692C57.7678 49.7288 58.39 49.6051 59.0183 49.6051C59.6466 49.6051 60.2687 49.7288 60.8492 49.9692C61.4296 50.2096 61.957 50.562 62.4011 51.0062L68.9672 57.5552C69.4117 58.0016 69.9399 58.3557 70.5217 58.5974C71.1035 58.8391 71.7272 58.9635 72.3572 58.9635C72.9872 58.9635 73.611 58.8391 74.1928 58.5974C74.7745 58.3557 75.3028 58.0016 75.7472 57.5552L92.8637 40.4459C93.3081 40.0019 93.6606 39.4747 93.9011 38.8945C94.1416 38.3143 94.2654 37.6924 94.2654 37.0644C94.2654 36.4364 94.1416 35.8145 93.9011 35.2343C93.6606 34.6541 93.3081 34.1269 92.8637 33.6829L73.1655 14.0072C72.7213 13.563 72.194 13.2106 71.6135 12.9702C71.0331 12.7298 70.4109 12.6061 69.7826 12.6061C69.1543 12.6061 68.5322 12.7298 67.9518 12.9702C67.3713 13.2106 66.8439 13.563 66.3997 14.0072L30.2364 50.1555C29.7894 50.5974 29.4344 51.1236 29.1922 51.7037C28.95 52.2837 28.8252 52.906 28.8252 53.5345C28.8252 54.1631 28.95 54.7854 29.1922 55.3654C29.4344 55.9454 29.7894 56.4717 30.2364 56.9136L49.9299 76.5989C50.3741 77.0431 50.9015 77.3955 51.4819 77.6359C52.0623 77.8763 52.6845 78 53.3128 78C53.9411 78 54.5632 77.8763 55.1437 77.6359C55.7241 77.3955 56.2515 77.0431 56.6957 76.5989L59.2394 74.0563C59.6837 73.6123 60.0362 73.0851 60.2767 72.5049C60.5172 71.9247 60.641 71.3028 60.641 70.6748C60.641 70.0468 60.5172 69.4249 60.2767 68.8447C60.0362 68.2645 59.6837 67.7373 59.2394 67.2933L52.6733 60.73C52.2289 60.286 51.8764 59.7589 51.6359 59.1786C51.3954 58.5984 51.2716 57.9765 51.2716 57.3485C51.2716 56.7205 51.3954 56.0986 51.6359 55.5184C51.8764 54.9382 52.2289 54.411 52.6733 53.967Z" fill="#EF5A5A"/>
</svg>
